Coordinates
version=1
nRows=27
nColumns=38
inDegrees=no

Units are S.I. units (second, meters, Newtons, ...)
If the header above contains a line with 'inDegrees', this indicates whether rotational values are in degrees (yes) or radians (no).

endheader
time	pelvis_tilt	pelvis_list	pelvis_rotation	pelvis_tx	pelvis_ty	pelvis_tz	hip_flexion_r	hip_adduction_r	hip_rotation_r	knee_angle_r	ankle_angle_r	subtalar_angle_r	mtp_angle_r	hip_flexion_l	hip_adduction_l	hip_rotation_l	knee_angle_l	ankle_angle_l	subtalar_angle_l	mtp_angle_l	lumbar_extension	lumbar_bending	lumbar_rotation	arm_flex_r	arm_add_r	arm_rot_r	elbow_flex_r	pro_sup_r	wrist_flex_r	wrist_dev_r	arm_flex_l	arm_add_l	arm_rot_l	elbow_flex_l	pro_sup_l	wrist_flex_l	wrist_dev_l
1.25	0.786033	1.53306	-2.36806	0.797404	-0.0903148	1.03599	0.450705	-0.0154828	-0.198189	0.385501	-0.0810113	0	0	-0.252168	0.0784308	-0.318084	0.277118	-0.0961546	0	0	-0.148961	-0.00214929	-0.143403	-0.209292	-0.193965	-0.0877901	0.565714	0.377445	0	0	0.193131	-0.817531	0.726219	0.824759	1.14212	0	0
1.26	0.803942	1.53439	-2.37959	0.797819	-0.100621	1.03449	0.451399	-0.0144883	-0.192447	0.382276	-0.0796796	0	0	-0.25763	0.0746052	-0.317805	0.28517	-0.0933591	0	0	-0.148675	0.00166584	-0.147269	-0.211946	-0.194446	-0.0935944	0.573745	0.376783	0	0	0.200401	-0.817304	0.73106	0.826668	1.1466	0	0
1.27	0.818511	1.53586	-2.38717	0.798266	-0.111074	1.03305	0.451534	-0.013511	-0.183159	0.384225	-0.0780184	0	0	-0.262577	0.0701246	-0.317548	0.294414	-0.0907375	0	0	-0.148398	0.00599813	-0.151358	-0.215102	-0.195233	-0.0990439	0.581591	0.376631	0	0	0.205967	-0.816382	0.734636	0.82872	1.14957	0	0
1.28	0.820325	1.53753	-2.38152	0.798674	-0.12173	1.03169	0.451101	-0.0120727	-0.172304	0.391782	-0.0772664	0	0	-0.26742	0.064712	-0.316854	0.304584	-0.0887523	0	0	-0.147964	0.0108547	-0.155927	-0.218256	-0.196209	-0.103575	0.588426	0.376369	0	0	0.209073	-0.815197	0.736587	0.831171	1.15076	0	0
1.29	0.801791	1.53942	-2.3553	0.798993	-0.132638	1.03041	0.449845	-0.00980394	-0.160541	0.404549	-0.077435	0	0	-0.272302	0.0581687	-0.316449	0.315881	-0.0868858	0	0	-0.147649	0.0165009	-0.160672	-0.222419	-0.197009	-0.109632	0.596438	0.374787	0	0	0.209503	-0.813772	0.736671	0.834188	1.15123	0	0
1.3	0.769093	1.54147	-2.31501	0.799299	-0.143807	1.0292	0.447661	-0.00687233	-0.149904	0.421394	-0.0782135	0	0	-0.276975	0.0511152	-0.316376	0.328185	-0.0854014	0	0	-0.147191	0.02279	-0.165009	-0.22758	-0.198189	-0.116132	0.604863	0.373264	0	0	0.207697	-0.811633	0.735214	0.837436	1.15132	0	0
1.31	0.711204	1.54352	-2.24977	0.799493	-0.155297	1.0281	0.443686	-0.00266824	-0.139527	0.439731	-0.0797912	0	0	-0.281801	0.0432866	-0.316354	0.341496	-0.0845013	0	0	-0.146515	0.0296589	-0.169001	-0.233565	-0.199504	-0.122758	0.613191	0.372076	0	0	0.20338	-0.808877	0.732185	0.840828	1.15078	0	0
1.32	0.632384	1.54566	-2.16429	0.799536	-0.167051	1.02709	0.438601	0.00266995	-0.130644	0.457555	-0.0834958	0	0	-0.286273	0.0349118	-0.316393	0.356042	-0.0843006	0	0	-0.145375	0.0369124	-0.172516	-0.239925	-0.200708	-0.12983	0.621034	0.370567	0	0	0.196645	-0.805645	0.728012	0.84415	1.15012	0	0
1.33	0.501843	1.54797	-2.0281	0.799393	-0.178947	1.02634	0.433914	0.00866586	-0.125039	0.47291	-0.0911411	0	0	-0.290061	0.025536	-0.316456	0.372287	-0.0849811	0	0	-0.144268	0.0451635	-0.174889	-0.245401	-0.202082	-0.13648	0.627075	0.369344	0	0	0.188583	-0.801252	0.723196	0.846298	1.14961	0	0
1.34	0.283703	1.54974	-1.80576	0.799088	-0.190897	1.02604	0.430185	0.0145376	-0.123067	0.481765	-0.101619	0	0	-0.293009	0.0150962	-0.316806	0.39088	-0.0871614	0	0	-0.143696	0.0548145	-0.175731	-0.248619	-0.203964	-0.141924	0.629539	0.368865	0	0	0.179978	-0.79499	0.718321	0.846103	1.1498	0	0
1.35	-0.00974396	1.54955	-1.50983	0.798658	-0.202925	1.02626	0.425183	0.0213995	-0.122703	0.484331	-0.113685	0	0	-0.295502	0.00385246	-0.317999	0.412179	-0.0913098	0	0	-0.143966	0.0655576	-0.174959	-0.25009	-0.206009	-0.146662	0.628959	0.368639	0	0	0.170667	-0.786927	0.713265	0.843675	1.15146	0	0
1.36	-0.285879	1.54685	-1.23333	0.798063	-0.215017	1.02697	0.418338	0.0297144	-0.121429	0.4868	-0.1297	0	0	-0.297094	-0.00750647	-0.320997	0.436574	-0.0976815	0	0	-0.144979	0.0765559	-0.172409	-0.250412	-0.208544	-0.149705	0.626428	0.369515	0	0	0.159956	-0.777604	0.707232	0.839917	1.15424	0	0
1.37	-0.479009	1.54354	-1.04234	0.797228	-0.227159	1.02794	0.41205	0.0380853	-0.118478	0.495315	-0.150573	0	0	-0.296244	-0.0173952	-0.324575	0.464468	-0.106919	0	0	-0.145736	0.0862607	-0.168145	-0.249881	-0.211058	-0.151541	0.622158	0.369804	0	0	0.146199	-0.767734	0.697938	0.836321	1.15685	0	0
1.38	-0.613659	1.54133	-0.911917	0.796179	-0.239308	1.02899	0.407974	0.0450878	-0.11433	0.50919	-0.164101	0	0	-0.291538	-0.0251018	-0.327113	0.496574	-0.117052	0	0	-0.145332	0.0938078	-0.162998	-0.249078	-0.213388	-0.152052	0.617171	0.369111	0	0	0.129188	-0.758256	0.68611	0.83369	1.15838	0	0
1.39	-0.70736	1.53952	-0.82301	0.794916	-0.251454	1.03011	0.403927	0.0511032	-0.107207	0.523148	-0.168681	0	0	-0.28367	-0.0318575	-0.327035	0.533141	-0.128705	0	0	-0.144867	0.0996605	-0.158326	-0.248383	-0.215311	-0.151562	0.61245	0.36771	0	0	0.109714	-0.749787	0.673041	0.832207	1.15847	0	0
1.4	-0.764924	1.53731	-0.769489	0.793498	-0.263544	1.03133	0.39811	0.0566557	-0.0989949	0.535652	-0.16988	0	0	-0.273412	-0.0388686	-0.323084	0.57361	-0.142247	0	0	-0.145269	0.104594	-0.15506	-0.247311	-0.216585	-0.150748	0.607569	0.3659	0	0	0.0891505	-0.742433	0.660551	0.831422	1.15694	0	0
1.41	-0.801244	1.53473	-0.73649	0.791978	-0.275567	1.03265	0.390324	0.0622486	-0.0934326	0.546026	-0.170088	0	0	-0.260778	-0.0463533	-0.31613	0.617758	-0.157098	0	0	-0.146445	0.109042	-0.1522	-0.246238	-0.217303	-0.150323	0.602631	0.364249	0	0	0.0691003	-0.735448	0.650056	0.830389	1.15407	0	0
1.42	-0.855222	1.5329	-0.684857	0.790544	-0.287472	1.03394	0.382562	0.067234	-0.0944637	0.553139	-0.168605	0	0	-0.243532	-0.0541618	-0.306723	0.666568	-0.177725	0	0	-0.146172	0.113367	-0.151771	-0.244159	-0.218064	-0.149115	0.596956	0.362645	0	0	0.0471381	-0.728294	0.639116	0.828869	1.14829	0	0
1.43	-0.899897	1.53016	-0.641016	0.789152	-0.299259	1.03524	0.372295	0.0718329	-0.101028	0.555523	-0.166841	0	0	-0.224056	-0.062816	-0.294856	0.718629	-0.198428	0	0	-0.14661	0.118205	-0.152487	-0.241977	-0.218762	-0.147521	0.591725	0.361408	0	0	0.0265946	-0.721422	0.631604	0.82671	1.14203	0	0
1.44	-0.948893	1.52765	-0.592105	0.787854	-0.310812	1.03638	0.361365	0.0756453	-0.111439	0.55474	-0.164875	0	0	-0.201229	-0.0709271	-0.280366	0.774005	-0.217353	0	0	-0.146762	0.123201	-0.15358	-0.239981	-0.219711	-0.145812	0.587674	0.360366	0	0	0.00753726	-0.714456	0.627067	0.824035	1.134	0	0
1.45	-1.01251	1.5259	-0.528177	0.786623	-0.322046	1.03723	0.351442	0.079329	-0.121668	0.553521	-0.161252	0	0	-0.174761	-0.0784017	-0.264546	0.831831	-0.233069	0	0	-0.146015	0.127894	-0.154455	-0.238137	-0.220986	-0.143534	0.584622	0.360028	0	0	-0.00978689	-0.707729	0.625648	0.821263	1.12434	0	0
1.46	-1.08995	1.52501	-0.450563	0.785432	-0.332945	1.03785	0.343289	0.0831547	-0.128413	0.553604	-0.155662	0	0	-0.144696	-0.0848402	-0.248599	0.891467	-0.247503	0	0	-0.144322	0.131845	-0.154688	-0.236412	-0.222347	-0.141093	0.582525	0.36053	0	0	-0.0253101	-0.701524	0.627734	0.818444	1.11397	0	0
1.47	-1.15998	1.52448	-0.38063	0.784261	-0.343571	1.03843	0.335688	0.0870117	-0.130535	0.55515	-0.148112	0	0	-0.113082	-0.0901328	-0.233313	0.951163	-0.26257	0	0	-0.142718	0.134899	-0.154127	-0.234437	-0.223144	-0.140182	0.580494	0.358955	0	0	-0.0378248	-0.695676	0.635395	0.814477	1.10294	0	0
1.48	-1.20255	1.52369	-0.338333	0.783094	-0.354011	1.03912	0.326886	0.0910675	-0.128623	0.556829	-0.139465	0	0	-0.0823788	-0.0948209	-0.219842	1.00839	-0.277128	0	0	-0.142538	0.137475	-0.152207	-0.232419	-0.223753	-0.139742	0.577991	0.35596	0	0	-0.0464623	-0.690035	0.649514	0.808974	1.09004	0	0
1.49	-1.2017	1.52242	-0.340005	0.781919	-0.364366	1.04004	0.315475	0.0950652	-0.124796	0.557117	-0.131523	0	0	-0.0546172	-0.099104	-0.209169	1.06097	-0.285001	0	0	-0.144977	0.13958	-0.148281	-0.230272	-0.224681	-0.138562	0.574989	0.353621	0	0	-0.0513581	-0.684813	0.669875	0.802152	1.07905	0	0
1.5	-1.17349	1.52129	-0.370453	0.780687	-0.374691	1.04112	0.302246	0.0987162	-0.120137	0.555683	-0.124698	0	0	-0.0293802	-0.102363	-0.201605	1.10844	-0.28135	0	0	-0.148554	0.14051	-0.142534	-0.228072	-0.225293	-0.138411	0.571591	0.349908	0	0	-0.0549378	-0.679439	0.69243	0.794377	1.06979	0	0
1.51	-1.12693	1.52079	-0.420769	0.779361	-0.385059	1.04231	0.288373	0.101303	-0.11634	0.554073	-0.118805	0	0	-0.00602259	-0.104179	-0.197709	1.15088	-0.265791	0	0	-0.152594	0.139819	-0.135182	-0.225977	-0.225609	-0.138266	0.567227	0.345845	0	0	-0.058798	-0.673792	0.714703	0.786223	1.06149	0	0
